# xmcd
#
# Track frame offsets:
#	150
#	14525
#	28422
#	43156
#	59632
#	68830
#	78092
#	92487
#	106530
#	121448
#	137974
#	158647
#	173711
#	193046
#	210531
#	225857
#	243589
#	264165
#	279354
#	298692
#	318119
#	333727
#
# Disc length: 4657 seconds
#
# Revision: 4294836226
# Processed by: cddbd v1.5.2PL0 Copyright (c) Steve Scherf et al.
# Submitted via: EZCDAudioConverter 8.5.0.1
#
DISCID=33122f16
DTITLE=Electric Banana - The Complete De Wolfe Sessions 2/3
DYEAR=1969
DGENRE=
TTITLE0=Alexander
TTITLE1=It'll Never Be Me
TTITLE2=Eagle's Son
TTITLE3=Blow Your Mind
TTITLE4=What's Good For The Goose
TTITLE5=Rave Up
TTITLE6=Alexander [Instrumental]
TTITLE7=It'll Never Be Me [Instrumental]
TTITLE8=Eagle's Son [Instrumental]
TTITLE9=Blow Your Mind [Instrumental]
TTITLE10=Sweet Orphan Lady
TTITLE11=I Could Not Believe My Eyes
TTITLE12=Good Times
TTITLE13=Walk Away
TTITLE14=The Loser
TTITLE15=Easily Done
TTITLE16=Sweet Orphan Lady [Instrumental]
TTITLE17=I Could Not Believe My Eyes [Instrumental]
TTITLE18=Good Times [Instrumental]
TTITLE19=Walk Away [Instrumental]
TTITLE20=The Loser [Instrumental]
TTITLE21=Easily Done [Instrumental]
EXTD=
EXTT0=
EXTT1=
EXTT2=
EXTT3=
EXTT4=
EXTT5=
EXTT6=
EXTT7=
EXTT8=
EXTT9=
EXTT10=
EXTT11=
EXTT12=
EXTT13=
EXTT14=
EXTT15=
EXTT16=
EXTT17=
EXTT18=
EXTT19=
EXTT20=
EXTT21=
PLAYORDER=
